<?xml version="1.0" encoding="UTF-8"?>
<svg id="Layer_1" data-name="Layer 1" xmlns="http://www.w3.org/2000/svg" viewBox="0 0 512 512">
  <defs>
    <style>
      .cls-1 {
        fill: #f9e38b;
      }

      .cls-2 {
        fill: #fece28;
      }

      .cls-3 {
        fill: #2d3644;
      }

      .cls-4 {
        fill: #7fb6fe;
      }

      .cls-5 {
        fill: #468ffe;
      }

      .cls-6 {
        fill: #2c3645;
      }
    </style>
  </defs>
  <g>
    <path class="cls-2" d="M256.48,387.35c11.6-1.3,27.93-1.05,37.95-6.86l154.37,16.17c12.18-.12,21.63-9.4,22.37-21.47l22.57-215.92c-.56-10.36-7.47-18.86-17.63-21.06l-194.17-20.44c-5.31-7.38-13.82-12.15-22.77-13.47l219.38,23.13c15.32,3.26,26.06,16.98,26.21,32.57l-22.83,217.87c-1.73,17.04-16.28,29.8-33.38,29.8l-192.07-20.33Z"/>
    <path class="cls-1" d="M294.44,380.5c10.24-5.93,16.35-17.21,16.41-29.02l-22.57-215.66c-.58-6.5-2.52-12.73-6.33-18.03l194.17,20.44c10.16,2.2,17.07,10.7,17.63,21.06l-22.57,215.92c-.74,12.08-10.19,21.36-22.37,21.47l-154.37-16.17Z"/>
  </g>
  <path class="cls-3" d="M411.69,232.09c-.3.37-7.15-4.58-8.16-5.11-9.69-5.08-34.78-12.05-42.24-.98-9.68,14.37,18.17,25.23,26.93,31,16.77,11.04,25.95,22.24,21.64,43.71-6.26,31.21-44.34,31.1-68.9,25.19-3.34-.8-18.91-5.76-20.36-8.22-.72-1.23,1.34-27.55,2.48-28.41.51-.38,8.46,6.93,9.91,7.85,11.04,7.04,49.92,17.55,46.81-5.57-1.91-14.18-40.12-22.93-48.62-43.66-15.04-36.67,21.1-53.07,51.72-50.49,4.38.37,29.71,5.01,31.19,8.42.52,1.21-1.56,25.25-2.39,26.28Z"/>
  <g>
    <path class="cls-5" d="M259.18,104.31c8.95,1.31,17.46,6.08,22.77,13.47,3.81,5.3,5.75,11.53,6.33,18.03l22.57,215.66c-.07,11.82-6.17,23.09-16.41,29.02-10.02,5.8-26.35,5.56-37.95,6.86-64.22,7.18-128.55,13.43-192.8,20.33-17.02.27-31.81-12.63-33.64-29.55L7.22,159.27c.47-15.37,11.14-28.59,26.2-31.82,75.22-7.82,150.43-16.94,225.75-23.13ZM254.48,115.16l-216.72,22.73c-10.98,1.36-19.13,10.57-19.52,21.63l22.58,215.67c.67,11.84,9.96,21.06,21.88,21.48l215.67-22.58c13.23-.72,23-12.31,21.21-25.54l-22.59-214.17c-1.67-11.45-11.01-19.23-22.5-19.22Z"/>
    <path class="cls-4" d="M254.48,115.16c11.5-.02,20.83,7.77,22.5,19.22l22.59,214.17c1.79,13.23-7.98,24.83-21.21,25.54l-215.67,22.58c-11.92-.42-21.21-9.64-21.88-21.48l-22.58-215.67c.39-11.06,8.54-20.27,19.52-21.63l216.72-22.73Z"/>
    <polygon class="cls-6" points="206.54 197.04 177.34 260.32 220 317.42 188.16 320.41 160.2 276.66 141.45 325.41 109.23 328.96 140.74 264.92 100 208.2 132.68 204.93 158.45 248.57 176.63 200.2 206.54 197.04"/>
  </g>
</svg>